<mxfile host="app.diagrams.net" modified="2023-04-24T20:24:44.111Z" agent="Mozilla/5.0 (Windows NT 10.0; Win64; x64) AppleWebKit/537.36 (KHTML, like Gecko) Chrome/111.0.0.0 Safari/537.36 OPR/97.0.0.0" etag="ahc_0rABPmLPqsosO1NE" version="21.2.1" type="device">
  <diagram name="Página-1" id="KaJCtoQpYr3l6-LeoOif">
    <mxGraphModel dx="1599" dy="1663" grid="1" gridSize="10" guides="1" tooltips="1" connect="1" arrows="1" fold="1" page="1" pageScale="1" pageWidth="827" pageHeight="1169" math="0" shadow="0">
      <root>
        <mxCell id="0" />
        <mxCell id="1" parent="0" />
        <mxCell id="I_DYkhG8h8PNuspl6qoo-6" value="Nuvem&lt;br&gt;(CLOUD)" style="rounded=1;whiteSpace=wrap;html=1;fillColor=#eeeeee;strokeColor=#36393d;align=left;fontSize=28;fontStyle=1;spacingLeft=20;spacing=2;spacingBottom=100;" parent="1" vertex="1">
          <mxGeometry x="-20" y="-80" width="1060" height="640" as="geometry" />
        </mxCell>
        <mxCell id="I_DYkhG8h8PNuspl6qoo-3" value="Névoa&lt;br&gt;(FOG)" style="rounded=1;whiteSpace=wrap;html=1;fillColor=#b0e3e6;strokeColor=#0e8088;align=left;fontSize=28;fontStyle=1;spacingLeft=60;spacing=2;spacingBottom=500;" parent="1" vertex="1">
          <mxGeometry x="130" y="-60" width="890" height="600" as="geometry" />
        </mxCell>
        <mxCell id="I_DYkhG8h8PNuspl6qoo-5" value="Neblina&lt;br&gt;(MIST)" style="rounded=1;whiteSpace=wrap;html=1;align=left;fontSize=28;fontStyle=1;spacingLeft=30;spacingTop=0;spacingBottom=370;fillColor=#bac8d3;strokeColor=#23445d;" parent="1" vertex="1">
          <mxGeometry x="280" y="-20" width="700" height="450" as="geometry" />
        </mxCell>
        <mxCell id="wT_MWSc8dvyuBXt7P2jG-19" value="&lt;b&gt;&amp;lt;&amp;lt;Servidor&amp;gt;&amp;gt;&lt;br&gt;Docker&lt;br&gt;&lt;/b&gt;" style="verticalAlign=top;align=left;spacingTop=8;spacingLeft=2;spacingRight=12;shape=cube;size=10;direction=south;fontStyle=4;html=1;whiteSpace=wrap;fillColor=#e1d5e7;strokeColor=#9673a6;" parent="1" vertex="1">
          <mxGeometry x="420" width="300" height="420" as="geometry" />
        </mxCell>
        <mxCell id="wT_MWSc8dvyuBXt7P2jG-7" value="&lt;b&gt;&amp;lt;&amp;lt;Aplicação DSM&amp;gt;&amp;gt;&lt;br&gt;C++&lt;br&gt;&lt;/b&gt;" style="verticalAlign=top;align=left;spacingTop=8;spacingLeft=2;spacingRight=12;shape=cube;size=10;direction=south;fontStyle=4;html=1;whiteSpace=wrap;fillColor=#dae8fc;strokeColor=#6c8ebf;" parent="1" vertex="1">
          <mxGeometry x="430" y="70" width="270" height="260" as="geometry" />
        </mxCell>
        <mxCell id="wT_MWSc8dvyuBXt7P2jG-12" value="TCP/IP" style="edgeStyle=orthogonalEdgeStyle;rounded=0;orthogonalLoop=1;jettySize=auto;html=1;entryX=1;entryY=0.5;entryDx=0;entryDy=0;labelBackgroundColor=none;fontStyle=1;fontSize=16;" parent="1" source="wT_MWSc8dvyuBXt7P2jG-11" target="wT_MWSc8dvyuBXt7P2jG-28" edge="1">
          <mxGeometry x="-0.3333" y="-10" relative="1" as="geometry">
            <mxPoint x="800" y="155" as="targetPoint" />
            <mxPoint as="offset" />
          </mxGeometry>
        </mxCell>
        <mxCell id="wT_MWSc8dvyuBXt7P2jG-11" value="Sensores de campo" style="verticalAlign=top;align=left;spacingTop=8;spacingLeft=2;spacingRight=12;shape=cube;size=10;direction=south;fontStyle=5;html=1;whiteSpace=wrap;fillColor=#f5f5f5;fontColor=#333333;strokeColor=#666666;" parent="1" vertex="1">
          <mxGeometry x="870" y="140" width="97" height="60" as="geometry" />
        </mxCell>
        <mxCell id="wT_MWSc8dvyuBXt7P2jG-16" value="&amp;lt;&amp;lt;interface&amp;gt;&amp;gt;&lt;br&gt;Memória compartilhada" style="html=1;whiteSpace=wrap;fillColor=#d5e8d4;strokeColor=#82b366;fontStyle=1" parent="1" vertex="1">
          <mxGeometry x="460" y="480" width="220" height="50" as="geometry" />
        </mxCell>
        <mxCell id="wT_MWSc8dvyuBXt7P2jG-26" value="ORB (TCP/IP)" style="edgeStyle=orthogonalEdgeStyle;rounded=0;orthogonalLoop=1;jettySize=auto;html=1;entryX=0.5;entryY=0;entryDx=0;entryDy=0;startArrow=classic;startFill=1;labelBackgroundColor=none;fontStyle=1;fontSize=16;" parent="1" source="wT_MWSc8dvyuBXt7P2jG-17" target="wT_MWSc8dvyuBXt7P2jG-16" edge="1">
          <mxGeometry x="0.25" y="60" relative="1" as="geometry">
            <mxPoint x="570" y="320" as="targetPoint" />
            <mxPoint y="-1" as="offset" />
          </mxGeometry>
        </mxCell>
        <mxCell id="wT_MWSc8dvyuBXt7P2jG-17" value="&amp;lt;&amp;lt;interface&amp;gt;&amp;gt;&lt;br&gt;CORBA&lt;br&gt;DSMComms" style="html=1;whiteSpace=wrap;fillColor=#f8cecc;strokeColor=#b85450;fontStyle=1" parent="1" vertex="1">
          <mxGeometry x="485" y="350" width="170" height="50" as="geometry" />
        </mxCell>
        <mxCell id="wT_MWSc8dvyuBXt7P2jG-21" value="Aplicação consumidora (Ex: SCADA)" style="verticalAlign=top;align=left;spacingTop=8;spacingLeft=2;spacingRight=12;shape=cube;size=10;direction=south;fontStyle=5;html=1;whiteSpace=wrap;" parent="1" vertex="1">
          <mxGeometry x="160" y="145" width="97" height="65" as="geometry" />
        </mxCell>
        <mxCell id="wT_MWSc8dvyuBXt7P2jG-32" value="IPC" style="edgeStyle=orthogonalEdgeStyle;rounded=0;orthogonalLoop=1;jettySize=auto;html=1;entryX=0.5;entryY=1;entryDx=0;entryDy=0;startArrow=classic;startFill=1;labelBackgroundColor=none;fontStyle=1;fontSize=16;" parent="1" source="wT_MWSc8dvyuBXt7P2jG-22" target="wT_MWSc8dvyuBXt7P2jG-28" edge="1">
          <mxGeometry y="-20" relative="1" as="geometry">
            <mxPoint as="offset" />
          </mxGeometry>
        </mxCell>
        <mxCell id="wT_MWSc8dvyuBXt7P2jG-34" style="edgeStyle=orthogonalEdgeStyle;rounded=0;orthogonalLoop=1;jettySize=auto;html=1;entryX=0.5;entryY=0;entryDx=0;entryDy=0;endArrow=none;endFill=0;" parent="1" source="wT_MWSc8dvyuBXt7P2jG-22" target="wT_MWSc8dvyuBXt7P2jG-17" edge="1">
          <mxGeometry relative="1" as="geometry" />
        </mxCell>
        <mxCell id="wT_MWSc8dvyuBXt7P2jG-22" value="&lt;p style=&quot;margin:0px;margin-top:6px;text-align:center;&quot;&gt;&lt;span&gt;Component&lt;/span&gt;&lt;/p&gt;&lt;hr&gt;&lt;p style=&quot;margin:0px;margin-left:8px;&quot;&gt;Beholder (Gerenciador)&lt;/p&gt;" style="align=left;overflow=fill;html=1;dropTarget=0;whiteSpace=wrap;fillColor=#fff2cc;strokeColor=#d6b656;fontStyle=1" parent="1" vertex="1">
          <mxGeometry x="510" y="250" width="120" height="70" as="geometry" />
        </mxCell>
        <mxCell id="wT_MWSc8dvyuBXt7P2jG-23" value="" style="shape=component;jettyWidth=8;jettyHeight=4;" parent="wT_MWSc8dvyuBXt7P2jG-22" vertex="1">
          <mxGeometry x="1" width="20" height="20" relative="1" as="geometry">
            <mxPoint x="-24" y="4" as="offset" />
          </mxGeometry>
        </mxCell>
        <mxCell id="wT_MWSc8dvyuBXt7P2jG-33" value="HTTP(SOAP)" style="edgeStyle=orthogonalEdgeStyle;rounded=0;orthogonalLoop=1;jettySize=auto;html=1;entryX=0;entryY=0;entryDx=25;entryDy=0;entryPerimeter=0;strokeColor=default;labelBackgroundColor=none;fontColor=default;labelBorderColor=none;startArrow=classic;startFill=1;fontStyle=1;fontSize=16;" parent="1" source="wT_MWSc8dvyuBXt7P2jG-28" target="wT_MWSc8dvyuBXt7P2jG-21" edge="1">
          <mxGeometry x="0.1067" y="-10" relative="1" as="geometry">
            <mxPoint x="230" y="70" as="targetPoint" />
            <mxPoint as="offset" />
          </mxGeometry>
        </mxCell>
        <mxCell id="wT_MWSc8dvyuBXt7P2jG-28" value="&lt;p style=&quot;margin: 6px 0px 0px; text-align: center; font-size: 12px;&quot;&gt;&lt;span style=&quot;font-size: 12px;&quot;&gt;Component&lt;/span&gt;&lt;/p&gt;&lt;hr style=&quot;font-size: 12px;&quot;&gt;&lt;p style=&quot;margin: 0px 0px 0px 8px; font-size: 12px;&quot;&gt;MessageProcessor&lt;/p&gt;" style="align=left;overflow=fill;html=1;dropTarget=0;whiteSpace=wrap;fillColor=#fff2cc;strokeColor=#d6b656;fontSize=12;fontStyle=1" parent="1" vertex="1">
          <mxGeometry x="510" y="140" width="120" height="60" as="geometry" />
        </mxCell>
        <mxCell id="wT_MWSc8dvyuBXt7P2jG-29" value="" style="shape=component;jettyWidth=8;jettyHeight=4;" parent="wT_MWSc8dvyuBXt7P2jG-28" vertex="1">
          <mxGeometry x="1" width="20" height="20" relative="1" as="geometry">
            <mxPoint x="-24" y="4" as="offset" />
          </mxGeometry>
        </mxCell>
      </root>
    </mxGraphModel>
  </diagram>
</mxfile>
